<?xml version="1.0" encoding="UTF-8"?>
<!DOCTYPE svg PUBLIC "-//W3C//DTD SVG 1.1//EN" "http://www.w3.org/Graphics/SVG/1.1/DTD/svg11.dtd">
<svg xmlns="http://www.w3.org/2000/svg" version="1.1" width="3543px" height="3543px" style="shape-rendering:geometricPrecision; text-rendering:geometricPrecision; image-rendering:optimizeQuality; fill-rule:evenodd; clip-rule:evenodd" xmlns:xlink="http://www.w3.org/1999/xlink">
<g><path style="opacity:0.991" fill="#7e5991" d="M 638.5,1474.5 C 638.5,1499.83 638.5,1525.17 638.5,1550.5C 617.701,1570.63 605.534,1595.29 602,1624.5C 600.639,1635.47 599.639,1646.47 599,1657.5C 598.333,1790.17 598.333,1922.83 599,2055.5C 603.33,2080.66 616.497,2099.66 638.5,2112.5C 638.5,2132.17 638.5,2151.83 638.5,2171.5C 595.167,2171.5 551.833,2171.5 508.5,2171.5C 508.5,1837.5 508.5,1503.5 508.5,1169.5C 527.592,1158.26 546.592,1146.76 565.5,1135C 573.646,1132.72 581.646,1133.06 589.5,1136C 595.165,1140.83 597.998,1147 598,1154.5C 598.333,1269.5 598.667,1384.5 599,1499.5C 611.435,1490.03 624.601,1481.7 638.5,1474.5 Z"/></g>
<g><path style="opacity:0.999" fill="#7e5690" d="M 508.5,1169.5 C 508.5,1503.5 508.5,1837.5 508.5,2171.5C 492.5,2171.5 476.5,2171.5 460.5,2171.5C 460.5,1845.17 460.5,1518.83 460.5,1192.5C 476.774,1185.36 492.774,1177.7 508.5,1169.5 Z"/></g>
<g><path style="opacity:0.999" fill="#7e538e" d="M 460.5,1192.5 C 460.5,1518.83 460.5,1845.17 460.5,2171.5C 437.167,2171.5 413.833,2171.5 390.5,2171.5C 390.5,1855.17 390.5,1538.83 390.5,1222.5C 414.008,1213.1 437.341,1203.1 460.5,1192.5 Z"/></g>
<g><path style="opacity:0.99" fill="#7e508d" d="M 390.5,1222.5 C 390.5,1538.83 390.5,1855.17 390.5,2171.5C 354.498,2171.67 318.498,2171.5 282.5,2171C 267.361,2165.55 262.194,2155.05 267,2139.5C 269.5,2135.67 272.667,2132.5 276.5,2130C 287.44,2126.85 298.44,2123.85 309.5,2121C 347.326,2106.86 366.826,2079.69 368,2039.5C 368.667,1796.5 368.667,1553.5 368,1310.5C 345.257,1304.77 322.424,1299.27 299.5,1294C 281.203,1288.45 276.037,1276.95 284,1259.5C 287.421,1255.54 291.588,1252.71 296.5,1251C 328.319,1243 359.653,1233.5 390.5,1222.5 Z"/></g>
<g><path style="opacity:0.991" fill="#80bdc2" d="M 2799.5,1456.5 C 2799.5,1481.17 2799.5,1505.83 2799.5,1530.5C 2765.8,1536.78 2742.3,1555.78 2729,1587.5C 2719.04,1614.23 2714.38,1641.9 2715,1670.5C 2714.33,1796.5 2714.33,1922.5 2715,2048.5C 2715.59,2064.67 2720.93,2079.01 2731,2091.5C 2749.04,2112.27 2771.87,2124.27 2799.5,2127.5C 2799.5,2142.17 2799.5,2156.83 2799.5,2171.5C 2756.17,2171.5 2712.83,2171.5 2669.5,2171.5C 2669.5,1929.5 2669.5,1687.5 2669.5,1445.5C 2679.89,1435.74 2691.89,1433.24 2705.5,1438C 2710.24,1441.31 2713.07,1445.81 2714,1451.5C 2714.17,1467.51 2714.67,1483.51 2715.5,1499.5C 2740.68,1479.91 2768.68,1465.58 2799.5,1456.5 Z"/></g>
<g><path style="opacity:0.996" fill="#7f6798" d="M 921.5,1459.5 C 921.5,1696.83 921.5,1934.17 921.5,2171.5C 870.167,2171.5 818.833,2171.5 767.5,2171.5C 767.5,2154.83 767.5,2138.17 767.5,2121.5C 797.587,2112.25 817.087,2092.58 826,2062.5C 826.958,2057.88 827.625,2053.21 828,2048.5C 828.667,1932.17 828.667,1815.83 828,1699.5C 827.119,1676.02 824.785,1652.69 821,1629.5C 816.137,1599.27 802.97,1573.44 781.5,1552C 776.65,1548.64 771.983,1545.14 767.5,1541.5C 767.5,1507.83 767.5,1474.17 767.5,1440.5C 807.511,1437.58 847.178,1440.08 886.5,1448C 898.635,1450.77 910.301,1454.6 921.5,1459.5 Z"/></g>
<g><path style="opacity:0.986" fill="#81c4c6" d="M 2905.5,1439.5 C 2905.5,1479.5 2905.5,1519.5 2905.5,1559.5C 2888.3,1541.03 2866.96,1530.86 2841.5,1529C 2827.42,1528.04 2813.42,1528.54 2799.5,1530.5C 2799.5,1505.83 2799.5,1481.17 2799.5,1456.5C 2833.92,1445.43 2869.25,1439.76 2905.5,1439.5 Z"/></g>
<g><path style="opacity:0.988" fill="#81c7c7" d="M 2905.5,1439.5 C 2909.5,1439.5 2913.5,1439.5 2917.5,1439.5C 2917.5,1484.5 2917.5,1529.5 2917.5,1574.5C 2913.53,1569.52 2909.53,1564.52 2905.5,1559.5C 2905.5,1519.5 2905.5,1479.5 2905.5,1439.5 Z"/></g>
<g><path style="opacity:0.995" fill="#81cbc9" d="M 2917.5,1439.5 C 2960.17,1438.48 3001.5,1445.31 3041.5,1460C 3051.92,1464.05 3061.92,1468.88 3071.5,1474.5C 3071.5,1706.83 3071.5,1939.17 3071.5,2171.5C 3020.17,2171.5 2968.83,2171.5 2917.5,2171.5C 2917.5,2148.83 2917.5,2126.17 2917.5,2103.5C 2928.05,2094.08 2935.88,2082.74 2941,2069.5C 2942.32,2064.9 2943.32,2060.23 2944,2055.5C 2944.17,1994.17 2944.33,1932.83 2944.5,1871.5C 2944.64,1805.49 2944.14,1739.49 2943,1673.5C 2942.15,1638.41 2933.65,1605.41 2917.5,1574.5C 2917.5,1529.5 2917.5,1484.5 2917.5,1439.5 Z"/></g>
<g><path style="opacity:0.988" fill="#7e6296" d="M 767.5,1440.5 C 767.5,1474.17 767.5,1507.83 767.5,1541.5C 752.828,1533.72 737.161,1529.39 720.5,1528.5C 720.5,1501.17 720.5,1473.83 720.5,1446.5C 736.023,1443.43 751.69,1441.43 767.5,1440.5 Z"/></g>
<g><path style="opacity:0.999" fill="#80bbc1" d="M 2669.5,1445.5 C 2669.5,1687.5 2669.5,1929.5 2669.5,2171.5C 2661.83,2171.5 2654.17,2171.5 2646.5,2171.5C 2646.5,1934.17 2646.5,1696.83 2646.5,1459.5C 2653.99,1454.59 2661.66,1449.92 2669.5,1445.5 Z"/></g>
<g><path style="opacity:0.983" fill="#7e5f94" d="M 720.5,1446.5 C 720.5,1473.83 720.5,1501.17 720.5,1528.5C 695.461,1526.12 671.795,1530.62 649.5,1542C 645.803,1544.84 642.137,1547.68 638.5,1550.5C 638.5,1525.17 638.5,1499.83 638.5,1474.5C 664.505,1461.39 691.838,1452.05 720.5,1446.5 Z"/></g>
<g><path style="opacity:0.999" fill="#7f6c9b" d="M 921.5,1459.5 C 964.594,1474.09 998.094,1500.76 1022,1539.5C 1024.12,1543.4 1025.95,1547.4 1027.5,1551.5C 1027.5,1758.17 1027.5,1964.83 1027.5,2171.5C 992.167,2171.5 956.833,2171.5 921.5,2171.5C 921.5,1934.17 921.5,1696.83 921.5,1459.5 Z"/></g>
<g><path style="opacity:0.999" fill="#80b8c0" d="M 2646.5,1459.5 C 2646.5,1696.83 2646.5,1934.17 2646.5,2171.5C 2610.83,2171.5 2575.17,2171.5 2539.5,2171.5C 2539.5,1951.5 2539.5,1731.5 2539.5,1511.5C 2576.36,1496.57 2612.03,1479.24 2646.5,1459.5 Z"/></g>
<g><path style="opacity:0.993" fill="#81d0cc" d="M 3071.5,1474.5 C 3113.51,1498.8 3142.01,1534.13 3157,1580.5C 3167.6,1614.35 3173.26,1649.02 3174,1684.5C 3175.22,1808.16 3175.89,1931.83 3176,2055.5C 3178.76,2074.36 3187.26,2090.03 3201.5,2102.5C 3201.5,2125.5 3201.5,2148.5 3201.5,2171.5C 3158.17,2171.5 3114.83,2171.5 3071.5,2171.5C 3071.5,1939.17 3071.5,1706.83 3071.5,1474.5 Z"/></g>
<g><path style="opacity:0.986" fill="#809fb4" d="M 2126.5,1494.5 C 2126.5,1521.5 2126.5,1548.5 2126.5,1575.5C 2083.43,1566.43 2040.09,1565.1 1996.5,1571.5C 1996.5,1543.83 1996.5,1516.17 1996.5,1488.5C 2040.05,1486.08 2083.38,1488.08 2126.5,1494.5 Z"/></g>
<g><path style="opacity:0.998" fill="#7f80a4" d="M 1464.5,1488.5 C 1464.5,1716.17 1464.5,1943.83 1464.5,2171.5C 1409.73,2170.06 1358.73,2155.73 1311.5,2128.5C 1311.5,1929.5 1311.5,1730.5 1311.5,1531.5C 1359.09,1505.19 1410.09,1490.86 1464.5,1488.5 Z"/></g>
<g><path style="opacity:0.999" fill="#7f86a7" d="M 1464.5,1488.5 C 1496.17,1488.5 1527.83,1488.5 1559.5,1488.5C 1559.5,1716.17 1559.5,1943.83 1559.5,2171.5C 1527.83,2171.5 1496.17,2171.5 1464.5,2171.5C 1464.5,1943.83 1464.5,1716.17 1464.5,1488.5 Z"/></g>
<g><path style="opacity:0.999" fill="#7f88a9" d="M 1559.5,1488.5 C 1571.17,1488.5 1582.83,1488.5 1594.5,1488.5C 1594.5,1716.17 1594.5,1943.83 1594.5,2171.5C 1582.83,2171.5 1571.17,2171.5 1559.5,2171.5C 1559.5,1943.83 1559.5,1716.17 1559.5,1488.5 Z"/></g>
<g><path style="opacity:0.999" fill="#7f8caa" d="M 1594.5,1488.5 C 1633.83,1488.5 1673.17,1488.5 1712.5,1488.5C 1712.5,1716.17 1712.5,1943.83 1712.5,2171.5C 1673.17,2171.5 1633.83,2171.5 1594.5,2171.5C 1594.5,1943.83 1594.5,1716.17 1594.5,1488.5 Z"/></g>
<g><path style="opacity:0.997" fill="#7f91ad" d="M 1712.5,1488.5 C 1748.17,1488.5 1783.83,1488.5 1819.5,1488.5C 1819.5,1559.5 1819.5,1630.5 1819.5,1701.5C 1789.79,1766.27 1782.29,1833.6 1797,1903.5C 1801.83,1925.82 1809.33,1947.15 1819.5,1967.5C 1819.5,2035.5 1819.5,2103.5 1819.5,2171.5C 1783.83,2171.5 1748.17,2171.5 1712.5,2171.5C 1712.5,1943.83 1712.5,1716.17 1712.5,1488.5 Z"/></g>
<g><path style="opacity:0.99" fill="#8094af" d="M 1819.5,1488.5 C 1827.17,1488.5 1834.83,1488.5 1842.5,1488.5C 1842.5,1547.17 1842.5,1605.83 1842.5,1664.5C 1834.43,1676.57 1826.76,1688.91 1819.5,1701.5C 1819.5,1630.5 1819.5,1559.5 1819.5,1488.5 Z"/></g>
<g><path style="opacity:0.987" fill="#8098b0" d="M 1842.5,1488.5 C 1893.83,1488.5 1945.17,1488.5 1996.5,1488.5C 1996.5,1516.17 1996.5,1543.83 1996.5,1571.5C 1933.5,1583.65 1882.16,1614.65 1842.5,1664.5C 1842.5,1605.83 1842.5,1547.17 1842.5,1488.5 Z"/></g>
<g><path style="opacity:0.985" fill="#80a5b7" d="M 2126.5,1494.5 C 2173.83,1503.37 2217.17,1521.37 2256.5,1548.5C 2256.5,1584.83 2256.5,1621.17 2256.5,1657.5C 2221.98,1616.55 2178.64,1589.22 2126.5,1575.5C 2126.5,1548.5 2126.5,1521.5 2126.5,1494.5 Z"/></g>
<g><path style="opacity:0.988" fill="#80b3be" d="M 2539.5,1511.5 C 2539.5,1731.5 2539.5,1951.5 2539.5,2171.5C 2492.5,2171.67 2445.5,2171.5 2398.5,2171C 2393.59,2169.38 2389.59,2166.55 2386.5,2162.5C 2386.5,2153.83 2386.5,2145.17 2386.5,2136.5C 2388.65,2133.2 2391.65,2130.7 2395.5,2129C 2418.03,2125.72 2438.36,2117.39 2456.5,2104C 2470.36,2092.14 2479.19,2077.31 2483,2059.5C 2484.49,1910.53 2484.99,1761.53 2484.5,1612.5C 2458.33,1606.63 2432.33,1600.13 2406.5,1593C 2393.73,1581.28 2393.39,1569.28 2405.5,1557C 2407.5,1556 2409.5,1555 2411.5,1554C 2455.25,1542.92 2497.92,1528.75 2539.5,1511.5 Z"/></g>
<g><path style="opacity:0.998" fill="#7e7ca2" d="M 1311.5,1531.5 C 1311.5,1730.5 1311.5,1929.5 1311.5,2128.5C 1302.82,2124.5 1294.82,2119.5 1287.5,2113.5C 1287.5,1924.5 1287.5,1735.5 1287.5,1546.5C 1295.5,1541.5 1303.5,1536.5 1311.5,1531.5 Z"/></g>
<g><path style="opacity:0.996" fill="#7f79a1" d="M 1287.5,1546.5 C 1287.5,1735.5 1287.5,1924.5 1287.5,2113.5C 1242.4,2084.07 1207.06,2045.73 1181.5,1998.5C 1181.5,1886.17 1181.5,1773.83 1181.5,1661.5C 1207.74,1614.92 1243.08,1576.58 1287.5,1546.5 Z"/></g>
<g><path style="opacity:0.988" fill="#80abba" d="M 2256.5,1548.5 C 2318.72,1588.07 2362.05,1642.73 2386.5,1712.5C 2386.5,1790.83 2386.5,1869.17 2386.5,1947.5C 2369,1996.69 2341.33,2039.19 2303.5,2075C 2288.53,2088.47 2272.87,2100.97 2256.5,2112.5C 2256.5,2078.83 2256.5,2045.17 2256.5,2011.5C 2296.47,1959.75 2315.81,1900.91 2314.5,1835C 2315.63,1768.88 2296.29,1709.71 2256.5,1657.5C 2256.5,1621.17 2256.5,1584.83 2256.5,1548.5 Z"/></g>
<g><path style="opacity:0.997" fill="#7e709d" d="M 1027.5,1551.5 C 1040.27,1575.57 1048.27,1601.24 1051.5,1628.5C 1051.5,1809.5 1051.5,1990.5 1051.5,2171.5C 1043.5,2171.5 1035.5,2171.5 1027.5,2171.5C 1027.5,1964.83 1027.5,1758.17 1027.5,1551.5 Z"/></g>
<g><path style="opacity:0.964" fill="#7f729d" d="M 1051.5,1628.5 C 1053.72,1638.59 1055.22,1648.92 1056,1659.5C 1057.02,1675.15 1057.69,1690.82 1058,1706.5C 1058.33,1821.5 1058.67,1936.5 1059,2051.5C 1063.64,2082.82 1080.48,2104.99 1109.5,2118C 1123.43,2122.65 1137.43,2126.98 1151.5,2131C 1164.44,2142.53 1164.78,2154.53 1152.5,2167C 1150.11,2168.86 1147.45,2170.19 1144.5,2171C 1113.5,2171.5 1082.5,2171.67 1051.5,2171.5C 1051.5,1990.5 1051.5,1809.5 1051.5,1628.5 Z"/></g>
<g><path style="opacity:0.98" fill="#7f759f" d="M 1181.5,1661.5 C 1181.5,1773.83 1181.5,1886.17 1181.5,1998.5C 1151.85,1946.6 1136.85,1890.6 1136.5,1830.5C 1137.01,1770.13 1152.01,1713.79 1181.5,1661.5 Z"/></g>
<g><path style="opacity:0.959" fill="#80afbb" d="M 2386.5,1712.5 C 2399.95,1750.19 2406.62,1789.19 2406.5,1829.5C 2406.51,1870.11 2399.84,1909.44 2386.5,1947.5C 2386.5,1869.17 2386.5,1790.83 2386.5,1712.5 Z"/></g>
<g><path style="opacity:0.993" fill="#8094af" d="M 1819.5,1967.5 C 1826.4,1980.3 1834.07,1992.63 1842.5,2004.5C 1842.5,2060.17 1842.5,2115.83 1842.5,2171.5C 1834.83,2171.5 1827.17,2171.5 1819.5,2171.5C 1819.5,2103.5 1819.5,2035.5 1819.5,1967.5 Z"/></g>
<g><path style="opacity:0.993" fill="#8098b0" d="M 1842.5,2004.5 C 1881.82,2054.85 1933.16,2085.85 1996.5,2097.5C 1996.5,2122.17 1996.5,2146.83 1996.5,2171.5C 1945.17,2171.5 1893.83,2171.5 1842.5,2171.5C 1842.5,2115.83 1842.5,2060.17 1842.5,2004.5 Z"/></g>
<g><path style="opacity:0.982" fill="#80a5b7" d="M 2256.5,2011.5 C 2256.5,2045.17 2256.5,2078.83 2256.5,2112.5C 2217.2,2139.81 2173.86,2157.81 2126.5,2166.5C 2126.5,2142.17 2126.5,2117.83 2126.5,2093.5C 2178.99,2080.28 2222.32,2052.95 2256.5,2011.5 Z"/></g>
<g><path style="opacity:0.991" fill="#809fb4" d="M 2126.5,2093.5 C 2126.5,2117.83 2126.5,2142.17 2126.5,2166.5C 2115.25,2168.49 2103.91,2169.99 2092.5,2171C 2060.5,2171.5 2028.5,2171.67 1996.5,2171.5C 1996.5,2146.83 1996.5,2122.17 1996.5,2097.5C 2040.12,2105.09 2083.45,2103.76 2126.5,2093.5 Z"/></g>
<g><path style="opacity:0.987" fill="#81d5cd" d="M 3201.5,2102.5 C 3205.52,2105.53 3209.52,2108.53 3213.5,2111.5C 3213.5,2131.5 3213.5,2151.5 3213.5,2171.5C 3209.5,2171.5 3205.5,2171.5 3201.5,2171.5C 3201.5,2148.5 3201.5,2125.5 3201.5,2102.5 Z"/></g>
<g><path style="opacity:0.988" fill="#81c7c7" d="M 2917.5,2103.5 C 2917.5,2126.17 2917.5,2148.83 2917.5,2171.5C 2913.5,2171.5 2909.5,2171.5 2905.5,2171.5C 2905.5,2151.83 2905.5,2132.17 2905.5,2112.5C 2909.46,2109.51 2913.46,2106.51 2917.5,2103.5 Z"/></g>
<g><path style="opacity:0.977" fill="#81d6cf" d="M 3213.5,2111.5 C 3220.02,2114.93 3226.69,2118.09 3233.5,2121C 3244.56,2123.85 3255.56,2126.85 3266.5,2130C 3277.78,2137.67 3280.61,2147.84 3275,2160.5C 3272.26,2164.96 3268.43,2168.12 3263.5,2170C 3246.9,2171.46 3230.24,2171.96 3213.5,2171.5C 3213.5,2151.5 3213.5,2131.5 3213.5,2111.5 Z"/></g>
<g><path style="opacity:0.976" fill="#7e5e94" d="M 638.5,2112.5 C 644.353,2115.59 650.353,2118.43 656.5,2121C 667.56,2123.85 678.56,2126.85 689.5,2130C 703.364,2140.64 704.697,2152.64 693.5,2166C 691.33,2167.59 688.996,2168.92 686.5,2170C 670.571,2171.45 654.571,2171.95 638.5,2171.5C 638.5,2151.83 638.5,2132.17 638.5,2112.5 Z"/></g>
<g><path style="opacity:0.977" fill="#81c5c6" d="M 2905.5,2112.5 C 2905.5,2132.17 2905.5,2151.83 2905.5,2171.5C 2889.1,2171.96 2872.76,2171.46 2856.5,2170C 2843.54,2163.44 2839.37,2153.27 2844,2139.5C 2846.5,2135.67 2849.67,2132.5 2853.5,2130C 2864.44,2126.85 2875.44,2123.85 2886.5,2121C 2892.85,2118.15 2899.19,2115.32 2905.5,2112.5 Z"/></g>
<g><path style="opacity:0.968" fill="#7e6296" d="M 767.5,2121.5 C 767.5,2138.17 767.5,2154.83 767.5,2171.5C 759.16,2171.67 750.827,2171.5 742.5,2171C 728.168,2165.5 723.001,2155.34 727,2140.5C 729.962,2134.21 734.795,2130.04 741.5,2128C 750.358,2126.45 759.024,2124.29 767.5,2121.5 Z"/></g>
<g><path style="opacity:0.936" fill="#81c2c5" d="M 2799.5,2127.5 C 2816.66,2133.5 2821.5,2144.83 2814,2161.5C 2810.36,2166.65 2805.53,2169.98 2799.5,2171.5C 2799.5,2156.83 2799.5,2142.17 2799.5,2127.5 Z"/></g>
<g><path style="opacity:0.82" fill="#80aeba" d="M 2386.5,2136.5 C 2386.5,2145.17 2386.5,2153.83 2386.5,2162.5C 2379.98,2153.75 2379.98,2145.08 2386.5,2136.5 Z"/></g>
</svg>
