<?xml version="1.0" standalone="no"?>
<!DOCTYPE svg PUBLIC "-//W3C//DTD SVG 20010904//EN"
 "http://www.w3.org/TR/2001/REC-SVG-20010904/DTD/svg10.dtd">
<svg version="1.0" xmlns="http://www.w3.org/2000/svg"
 width="3543.000000pt" height="3543.000000pt" viewBox="0 0 3543.000000 3543.000000"
 preserveAspectRatio="xMidYMid meet">

<g transform="translate(0.000000,3543.000000) scale(0.100000,-0.100000)"
fill="#000000" stroke="none">
<path d="M5707 24079 c-50 -12 -75 -25 -209 -113 -592 -386 -1580 -811 -2357
-1015 -107 -28 -209 -61 -228 -72 -76 -47 -111 -131 -92 -219 18 -85 80 -141
189 -168 40 -11 599 -144 658 -157 l22 -5 -2 -3748 c-3 -3566 -4 -3750 -21
-3807 -79 -265 -290 -472 -580 -571 -37 -13 -112 -33 -165 -44 -53 -12 -116
-30 -140 -41 -53 -26 -96 -78 -112 -134 -25 -89 29 -197 124 -248 l41 -22
2000 0 2000 0 41 22 c93 49 148 156 125 240 -16 58 -51 105 -99 131 -23 13
-106 39 -184 58 -381 93 -631 308 -715 614 -17 61 -18 178 -18 2090 0 2140 0
2157 46 2385 69 344 224 597 459 750 141 92 299 133 545 142 389 14 631 -71
851 -299 195 -202 313 -490 363 -889 46 -362 46 -370 46 -2274 l0 -1810 -22
-87 c-27 -104 -58 -169 -124 -259 -146 -198 -354 -317 -664 -379 -74 -15 -121
-38 -162 -82 -40 -41 -53 -76 -53 -137 0 -98 79 -189 182 -210 38 -8 625 -11
2013 -9 l1960 3 45 21 c125 58 175 200 106 305 -41 61 -87 84 -251 124 -389
95 -632 302 -721 615 -17 62 -18 160 -24 1970 -7 1936 -7 1972 -46 2260 -62
470 -212 885 -422 1166 -335 450 -890 733 -1612 821 -183 22 -794 25 -960 5
-605 -74 -1129 -266 -1502 -551 l-53 -40 -5 1767 -5 1767 -22 42 c-45 83 -137
118 -246 92z"/>
<path d="M13003 20025 c-898 -563 -1471 -1466 -1599 -2520 -20 -169 -23 -568
-5 -725 67 -582 246 -1079 556 -1545 145 -217 236 -327 439 -530 222 -220 450
-399 679 -530 l47 -27 0 2971 c0 1634 -3 2971 -7 2970 -5 0 -54 -29 -110 -64z"/>
</g>
</svg>
