<svg xmlns="http://www.w3.org/2000/svg" viewBox="0 0 566.9 195.6" xml:space="preserve" baseProfile="tiny" version="1.2">
  <switch>
    <g>
      <title>Healthon Logo</title>
      <path d="M394 98.1c-4.9-8.1-11.4-14.7-19.4-19.9-.1-.1-.3-.2-.4-.3-.5-.3-1.1-.7-1.7-1-8.9-5.6-19.3-9.1-30.4-9.6-2.6-.2-5.2-.4-7.9-.4-2 0-3.9.1-5.9.2H227.9c-35.1 0-63.8 28.9-63.8 64.2 0 35.3 28.6 64.2 63.8 64.2h110.9c15.9 0 30.4-5.9 41.6-15.7 5.4-4.4 10-9.6 13.6-15.7 5.9-9.7 8.8-20.7 8.8-33.1 0-12.1-2.9-23.1-8.8-32.9zm-14.5 60.3c-4.2 7.6-10 13.5-17.4 17.8-7.4 4.2-16 6.4-25.8 6.4s-18.4-2.1-25.8-6.4c-7.4-4.2-13.2-10.2-17.4-17.8-4.2-7.6-6.3-16.4-6.3-26.3 0-9.9 2.1-18.7 6.3-26.3 4.2-7.6 10-13.5 17.4-17.8 7.4-4.2 16-6.4 25.8-6.4s18.4 2.1 25.8 6.4c7.4 4.2 13.2 10.2 17.4 17.8 4.2 7.6 6.3 16.4 6.3 26.3 0 9.9-2.1 18.7-6.3 26.3zm-211.8 30.5c.7.9 1 2 .8 3-.2.9-.7 1.8-1.4 2.4-.8.7-1.9 1.1-3.2 1.1H91.3c-1.3 0-2.4-.4-3.2-1.1-.8-.7-1.3-1.5-1.4-2.4-.2-1 0-2.1.8-3 .6-.8 1.6-1.4 2.8-1.7.6-.1 1.6-.3 3.9-.9 1.7-.5 3.4-1.3 5.2-2.5 1.7-1.1 3.3-2.8 4.7-4.9 1.3-2 2-4.8 2-8.2v-62.2c-.1-3.9-.4-8-.9-12.2-.5-4-1.5-7.7-3.1-11.1-1.5-3.2-3.8-5.8-6.7-7.9-2.9-2-6.8-3-11.7-3-5.1 0-9.1 1-11.8 2.9-2.8 2-4.9 4.5-6.2 7.4-1.4 3-2.3 6.3-2.6 9.8-.3 3.6-.5 6.9-.5 9.7v66.6c0 3.4.7 6.2 2 8.2 1.4 2.1 2.9 3.8 4.7 4.9 1.8 1.2 3.5 2 5.2 2.5 2.2.6 3.2.8 3.7.9 1.5.4 2.4.9 3 1.7.7.9 1 2 .8 3.1-.2.9-.7 1.8-1.5 2.4-.8.7-1.9 1.1-3.2 1.1H4.7c-1.3 0-2.4-.4-3.2-1.1-.8-.7-1.3-1.5-1.4-2.4-.2-1.1 0-2.1.8-3 .6-.8 1.6-1.4 2.8-1.7.6-.1 1.6-.3 3.9-.9 1.7-.5 3.4-1.3 5.2-2.5 1.7-1.1 3.3-2.8 4.7-4.9 1.3-2 2-4.8 2-8.2V33.3c-.4 0-.9-.2-2.3-.5-1.2-.3-2.6-.6-4.1-1-1.5-.4-2.9-.7-4.2-1-1.4-.3-2.3-.5-2.6-.6-2.9-.7-3.3-2.9-3.4-3.8 0-.9.2-3.3 3.6-4.2 3.7-.9 7.8-2 12.1-3.5s8.7-3.1 13.1-5c4.4-1.8 8.6-3.9 12.7-6s7.7-4.3 10.9-6.5C56.6.3 58 0 59.3.1c.8.1 3.2.6 3.2 4.2v65c1.2-.9 2.4-1.8 3.8-2.6 2.7-1.8 5.8-3.3 9.1-4.6 3.3-1.3 7.1-2.3 11.2-3.1 4.1-.8 8.7-1.2 13.6-1.2 8.1 0 15 .9 20.5 2.7 5.6 1.8 10.3 4.3 14 7.3 3.7 3.1 6.6 6.6 8.6 10.6 1.9 3.9 3.4 8 4.2 12.2.8 4.2 1.3 8.3 1.5 12.4.1 4 .2 7.8.2 11.3v56.5c0 3.4.7 6.2 2 8.2 1.4 2.1 2.9 3.8 4.7 4.9 1.8 1.2 3.5 2 5.2 2.5 2.2.6 3.2.8 3.7.9h.3c1 .2 2 .8 2.6 1.6zm399.2 3c-.2.9-.7 1.8-1.4 2.4-.8.7-1.9 1.1-3.2 1.1h-72.5c-1.3 0-2.4-.4-3.2-1.1-.7-.7-1.3-1.5-1.4-2.4-.2-1.1 0-2.1.8-3 .6-.8 1.6-1.4 2.8-1.7.6-.1 1.6-.3 3.9-.9 1.7-.5 3.4-1.3 5.2-2.5 1.7-1.1 3.3-2.8 4.7-4.9 1.3-2 2-4.8 2-8.2v-62.2c-.1-3.9-.4-8-.9-12.2-.5-4-1.6-7.7-3.1-11.1-1.5-3.2-3.8-5.8-6.7-7.9-2.9-2-6.8-3-11.7-3-5.1 0-9.1 1-11.8 2.9-2.8 2-4.9 4.5-6.2 7.4-1.4 3-2.3 6.3-2.6 9.8-.3 3.6-.5 6.9-.5 9.7v66.6c0 3.4.7 6.2 2 8.2 1.4 2.1 3 3.8 4.7 4.9 1.8 1.2 3.5 2 5.2 2.5 2.2.6 3.2.8 3.7.9 1.5.4 2.4.9 3 1.7.7.9 1 2 .8 3-.2.9-.7 1.8-1.4 2.4-.8.7-1.9 1.1-3.2 1.1h-72.5c-1.3 0-2.4-.4-3.2-1.1-.8-.7-1.3-1.5-1.4-2.4-.2-1 0-2.1.8-3 .6-.8 1.6-1.4 2.8-1.7.6-.1 1.6-.3 3.9-.9 1.7-.5 3.4-1.3 5.2-2.5 1.7-1.1 3.3-2.8 4.7-4.9 1.3-2 2-4.8 2-8.2V90.1c-.3 0-.9-.1-2.3-.5-1.2-.3-2.6-.6-4.1-1-1.5-.4-2.9-.7-4.2-1-1.4-.3-2.3-.5-2.6-.6-2.9-.7-3.3-2.9-3.3-3.8 0-.9.2-3.3 3.6-4.2 3.7-.9 7.8-2 12.1-3.5s8.7-3.2 13.1-5c4.3-1.8 8.6-3.9 12.7-6s7.7-4.3 10.9-6.5c1.3-.9 2.6-1.2 4-1.1 1.6.2 3.2 1.4 3.2 4.2v8.1c1.2-.9 2.4-1.8 3.7-2.6 2.7-1.8 5.8-3.3 9.1-4.6 3.3-1.3 7.1-2.3 11.2-3.1 4.1-.8 8.7-1.2 13.6-1.2 8.1 0 15 .9 20.5 2.7 5.6 1.8 10.3 4.3 14 7.3 3.7 3.1 6.6 6.6 8.6 10.6 2 3.9 3.4 8 4.2 12.2.8 4.2 1.3 8.3 1.5 12.4.1 4 .2 7.8.2 11.3v56.5c0 3.4.7 6.2 2 8.2 1.4 2.1 2.9 3.8 4.7 4.9 1.8 1.2 3.5 2 5.2 2.5 2.2.6 3.2.8 3.7.9h.3c1.2.3 2.1.9 2.8 1.7.2.9.5 2 .3 3z"/>
    </g>
  </switch>
</svg>
