<?xml version="1.0" encoding="UTF-8" standalone="no"?>
<!-- Created with Inkscape (http://www.inkscape.org/) -->

<svg
   version="1.1"
   id="svg2"
   width="1133.8533"
   height="1133.8533"
   viewBox="0 0 1133.8533 1133.8533"
   sodipodi:docname="08.ai"
   xmlns:inkscape="http://www.inkscape.org/namespaces/inkscape"
   xmlns:sodipodi="http://sodipodi.sourceforge.net/DTD/sodipodi-0.dtd"
   xmlns="http://www.w3.org/2000/svg"
   xmlns:svg="http://www.w3.org/2000/svg">
  <defs
     id="defs6">
    <linearGradient
       x1="0"
       y1="0"
       x2="1"
       y2="0"
       gradientUnits="userSpaceOnUse"
       gradientTransform="matrix(722.83459,0,0,-722.83459,63.77953,453.53961)"
       spreadMethod="pad"
       id="linearGradient28">
      <stop
         style="stop-opacity:1;stop-color:#7e4c8b"
         offset="0"
         id="stop24" />
      <stop
         style="stop-opacity:1;stop-color:#81d8d0"
         offset="1"
         id="stop26" />
    </linearGradient>
  </defs>
  <sodipodi:namedview
     id="namedview4"
     pagecolor="#ffffff"
     bordercolor="#000000"
     borderopacity="0.25"
     inkscape:showpageshadow="2"
     inkscape:pageopacity="0.0"
     inkscape:pagecheckerboard="0"
     inkscape:deskcolor="#d1d1d1" />
  <g
     id="g8"
     inkscape:groupmode="layer"
     inkscape:label="08"
     transform="matrix(1.3333333,0,0,-1.3333333,0,1133.8533)">
    <path
       d="M 0,0 H 850.39 V 850.39 H 0 Z"
       style="fill:#ffffff;fill-opacity:1;fill-rule:nonzero;stroke:none"
       id="path10" />
    <g
       id="g12">
      <g
         id="g14">
        <g
           id="g20">
          <g
             id="g22">
            <path
               d="m 134.211,576.683 c -4.049,-2.743 -8.73,-5.511 -13.918,-8.226 v 0 c -5.201,-2.718 -10.655,-5.291 -16.203,-7.644 v 0 c -5.599,-2.374 -11.206,-4.52 -16.665,-6.377 v 0 c -5.463,-1.862 -10.61,-3.355 -15.391,-4.46 v 0 c -4.342,-1.163 -4.672,-4.117 -4.613,-5.323 v 0 c 0.054,-1.18 0.601,-4.017 4.274,-4.856 v 0 c 0.399,-0.133 1.496,-0.406 3.294,-0.806 v 0 c 1.636,-0.365 3.435,-0.796 5.364,-1.272 v 0 c 1.979,-0.497 3.737,-0.927 5.278,-1.297 v 0 c 1.721,-0.411 2.454,-0.56 2.919,-0.608 v 0 L 88.5,360.531 c 0,-4.359 -0.844,-7.874 -2.517,-10.444 v 0 c -1.762,-2.695 -3.773,-4.794 -5.973,-6.24 v 0 c -2.296,-1.509 -4.523,-2.573 -6.634,-3.167 v 0 c -2.928,-0.829 -4.184,-1.056 -4.983,-1.175 v 0 c -1.569,-0.393 -2.766,-1.111 -3.553,-2.126 v 0 c -0.912,-1.171 -1.246,-2.516 -0.962,-3.873 v 0 c 0.231,-1.177 0.873,-2.252 1.835,-3.103 v 0 c 1.044,-0.934 2.408,-1.405 4.049,-1.405 v 0 h 92.432 c 1.646,0 3.01,0.471 4.031,1.386 v 0 c 0.981,0.858 1.627,1.938 1.857,3.118 v 0 c 0.271,1.361 -0.054,2.693 -0.966,3.891 v 0 c -0.801,1.005 -1.984,1.717 -3.86,2.171 v 0 c -0.592,0.074 -1.884,0.327 -4.672,1.118 v 0 c -2.124,0.597 -4.356,1.661 -6.638,3.165 v 0 c -2.205,1.453 -4.211,3.549 -5.964,6.239 v 0 c -1.672,2.559 -2.518,6.075 -2.518,10.445 v 0 84.882 c 0,3.605 0.213,7.769 0.629,12.374 v 0 c 0.406,4.426 1.509,8.633 3.276,12.503 v 0 c 1.699,3.73 4.351,6.911 7.889,9.453 v 0 c 3.457,2.483 8.518,3.741 15.043,3.741 v 0 c 6.285,0 11.323,-1.296 14.975,-3.854 v 0 c 3.719,-2.608 6.588,-5.983 8.526,-10.029 v 0 c 2.024,-4.225 3.371,-8.97 3.999,-14.103 v 0 c 0.66,-5.37 1.058,-10.643 1.179,-15.607 v 0 -79.36 c 0,-4.359 -0.85,-7.874 -2.521,-10.445 v 0 c -1.758,-2.69 -3.764,-4.788 -5.969,-6.239 v 0 c -2.295,-1.509 -4.523,-2.573 -6.634,-3.167 v 0 c -2.932,-0.829 -4.184,-1.056 -4.984,-1.175 v 0 c -1.568,-0.393 -2.765,-1.111 -3.551,-2.126 v 0 c -0.913,-1.171 -1.247,-2.516 -0.967,-3.854 v 0 c 0.222,-1.18 0.863,-2.262 1.839,-3.122 v 0 c 1.044,-0.934 2.408,-1.405 4.049,-1.405 v 0 h 92.433 c 1.64,0 3,0.469 4.053,1.4 v 0 c 0.971,0.863 1.604,1.939 1.835,3.104 v 0 c 0.275,1.366 -0.059,2.705 -0.967,3.879 v 0 c -0.791,1.015 -1.985,1.729 -3.534,2.122 v 0 l -0.325,0.061 c -0.592,0.074 -1.885,0.327 -4.673,1.118 v 0 c -2.123,0.597 -4.355,1.661 -6.638,3.165 v 0 c -2.205,1.453 -4.211,3.549 -5.964,6.24 v 0 c -1.672,2.554 -2.517,6.066 -2.517,10.444 v 0 71.992 c 0,4.451 -0.095,9.238 -0.28,14.367 v 0 c -0.181,5.158 -0.818,10.472 -1.894,15.8 v 0 c -1.083,5.368 -2.896,10.607 -5.381,15.566 v 0 c -2.544,5.095 -6.245,9.657 -10.989,13.561 v 0 c -4.704,3.87 -10.692,7.003 -17.799,9.31 v 0 c -7.045,2.282 -15.838,3.439 -26.127,3.439 v 0 c -6.277,0 -12.114,-0.51 -17.347,-1.521 v 0 c -5.228,-1.01 -10.026,-2.353 -14.261,-3.996 v 0 c -4.252,-1.65 -8.16,-3.622 -11.617,-5.863 v 0 c -1.681,-1.091 -3.281,-2.212 -4.786,-3.353 v 0 82.833 c 0,4.589 -3.144,5.271 -4.106,5.373 v 0 c -0.264,0.029 -0.527,0.043 -0.789,0.043 v 0 c -1.496,0 -2.967,-0.471 -4.358,-1.399 M 642.17,504.114 c -4.072,-2.755 -8.758,-5.522 -13.922,-8.224 v 0 c -5.209,-2.724 -10.66,-5.296 -16.204,-7.641 v 0 c -5.554,-2.356 -11.161,-4.503 -16.665,-6.378 v 0 c -5.467,-1.864 -10.618,-3.355 -15.395,-4.46 v 0 c -4.347,-1.168 -4.668,-4.125 -4.604,-5.316 v 0 c 0.049,-1.179 0.587,-4.024 4.266,-4.865 v 0 c 0.406,-0.135 1.505,-0.404 3.307,-0.806 v 0 c 1.631,-0.364 3.421,-0.79 5.363,-1.276 v 0 c 1.98,-0.493 3.733,-0.926 5.269,-1.293 v 0 c 1.768,-0.424 2.499,-0.562 2.919,-0.605 v 0 l -0.049,-102.719 c 0,-4.359 -0.846,-7.874 -2.517,-10.445 v 0 c -1.759,-2.69 -3.764,-4.788 -5.969,-6.239 v 0 c -2.296,-1.509 -4.523,-2.573 -6.634,-3.167 v 0 c -2.933,-0.829 -4.184,-1.056 -4.983,-1.175 v 0 c -1.564,-0.39 -2.758,-1.107 -3.561,-2.135 v 0 c -0.908,-1.172 -1.234,-2.514 -0.958,-3.845 v 0 c 0.226,-1.188 0.868,-2.274 1.83,-3.115 v 0 c 1.044,-0.939 2.408,-1.412 4.058,-1.412 v 0 h 92.433 c 1.644,0 3.009,0.471 4.04,1.393 v 0 c 0.98,0.865 1.603,1.907 1.847,3.111 v 0 c 0.276,1.366 -0.058,2.705 -0.967,3.879 v 0 c -0.79,1.017 -1.983,1.731 -3.863,2.183 v 0 c -0.588,0.074 -1.875,0.325 -4.672,1.118 v 0 c -2.115,0.594 -4.348,1.661 -6.638,3.165 v 0 c -2.201,1.448 -4.207,3.548 -5.965,6.239 v 0 c -1.667,2.555 -2.512,6.071 -2.512,10.445 v 0 84.882 c 0,3.59 0.207,7.753 0.623,12.374 v 0 c 0.407,4.419 1.51,8.624 3.281,12.503 v 0 c 1.699,3.728 4.351,6.909 7.885,9.453 v 0 c 3.457,2.483 8.517,3.741 15.043,3.741 v 0 c 6.288,0 11.328,-1.296 14.974,-3.854 v 0 c 3.719,-2.608 6.588,-5.983 8.531,-10.029 v 0 c 2.02,-4.223 3.367,-8.968 4.004,-14.1 v 0 c 0.655,-5.358 1.048,-10.63 1.171,-15.61 v 0 -79.36 c 0,-4.364 -0.846,-7.88 -2.518,-10.444 v 0 c -1.762,-2.695 -3.772,-4.794 -5.974,-6.242 v 0 c -2.28,-1.505 -4.509,-2.569 -6.628,-3.165 v 0 c -2.933,-0.829 -4.189,-1.056 -4.989,-1.175 v 0 c -1.559,-0.39 -2.751,-1.105 -3.555,-2.135 v 0 c -0.909,-1.175 -1.238,-2.517 -0.963,-3.864 v 0 c 0.235,-1.181 0.88,-2.26 1.834,-3.096 v 0 c 1.044,-0.939 2.404,-1.412 4.054,-1.412 v 0 h 92.437 c 1.635,0 2.996,0.469 4.04,1.393 v 0 c 0.98,0.865 1.603,1.907 1.848,3.111 v 0 c 0.271,1.357 -0.054,2.69 -0.972,3.891 v 0 c -0.8,1.007 -1.988,1.719 -3.534,2.11 v 0 l -0.325,0.061 c -0.587,0.074 -1.874,0.325 -4.672,1.118 v 0 c -2.123,0.597 -4.355,1.661 -6.638,3.165 v 0 c -2.2,1.448 -4.207,3.548 -5.96,6.24 v 0 c -1.676,2.558 -2.522,6.072 -2.522,10.444 v 0 71.992 c 0,4.451 -0.094,9.238 -0.28,14.367 v 0 c -0.18,5.158 -0.817,10.472 -1.892,15.797 v 0 c -1.08,5.366 -2.888,10.603 -5.378,15.569 v 0 c -2.548,5.097 -6.245,9.659 -10.993,13.561 v 0 c -4.704,3.87 -10.692,7.001 -17.796,9.31 v 0 c -7.052,2.282 -15.842,3.439 -26.13,3.439 v 0 c -6.282,0 -12.114,-0.51 -17.343,-1.521 v 0 c -5.232,-1.007 -10.032,-2.352 -14.264,-3.996 v 0 c -4.253,-1.65 -8.162,-3.622 -11.619,-5.863 v 0 c -1.675,-1.089 -3.276,-2.207 -4.78,-3.351 v 0 10.269 c 0,3.642 -2.124,5.162 -4.116,5.37 v 0 c -0.247,0.025 -0.493,0.037 -0.739,0.037 v 0 c -1.509,0 -2.992,-0.46 -4.399,-1.397 M 482.448,492.708 H 354.301 c -44.814,0 -81.285,-36.82 -81.285,-81.857 v 0 c 0,-45.038 36.471,-81.853 81.285,-81.853 v 0 h 0.044 141.436 0.044 c 20.256,0 38.763,7.57 53.01,19.968 v 0 c 6.906,5.637 12.688,12.299 17.341,19.988 v 0 c 7.467,12.339 11.202,26.402 11.202,42.175 v 0 c 0,15.558 -3.735,29.565 -11.202,42.015 v 0 c -6.205,10.337 -14.481,18.788 -24.764,25.405 v 0 c -0.182,0.127 -0.375,0.246 -0.561,0.372 v 0 c -0.698,0.441 -1.406,0.876 -2.124,1.303 v 0 c -11.373,7.167 -24.595,11.548 -38.783,12.272 v 0 c -3.279,0.301 -6.61,0.487 -10.022,0.487 v 0 c -2.536,0 -5.016,-0.112 -7.474,-0.275 M 459.7,353.564 c -9.435,5.391 -16.832,12.948 -22.182,22.661 v 0 c -5.355,9.714 -8.033,20.905 -8.033,33.594 v 0 c 0,12.672 2.678,23.871 8.033,33.585 v 0 c 5.35,9.714 12.747,17.263 22.182,22.662 v 0 c 9.428,5.392 20.397,8.098 32.891,8.098 v 0 c 12.491,0 23.456,-2.706 32.887,-8.098 v 0 c 9.432,-5.399 16.832,-12.948 22.187,-22.662 v 0 c 5.351,-9.714 8.028,-20.913 8.028,-33.585 v 0 c 0,-12.689 -2.677,-23.88 -8.028,-33.594 v 0 c -5.355,-9.713 -12.755,-17.27 -22.187,-22.661 v 0 c -9.431,-5.404 -20.396,-8.099 -32.887,-8.099 v 0 c -12.494,0 -23.463,2.695 -32.891,8.099"
               style="fill:url(#linearGradient28);stroke:none"
               id="path30" />
          </g>
        </g>
      </g>
    </g>
  </g>
</svg>
